Patient4_TMGait_0pt3_01_right_14_EMG.mot
version=1
nRows=36
nColumns=33
inDegrees=no
endheader
time	1LAddLong	2LGlutMax	3LGlutMed	4LIliopsoas	5LSemiMemb	6LBicFemLong	7LRecFem	8LVastMed	9LVastLat	10LGasMed	11LTibAnt	12lTibPost	13LPeroneusLong	14LSol	15LExtDigLong	16LFlexDigLong	17RAddLong	18RGlutMax	19RGlutMed	20RIliopsoas	21RSemiMemb	22RBicFemLong	23RRecFem	24RVastMed	25RVastLat	26RGasMed	27RTibAnt	28RTibPost	29RPeroneusLong	30RSol	31RExtDigLong	32RFlexDigLong
25.03	0.043335	0.049438	-0.04364	-0.00412	0.068665	-0.49149	0.010071	0.00473	0.073242	-0.001526	0.000153	0.005646	-0.16693	0.063477	0.069122	-0.016785	0.018768	-0.017242	0.30014	-0.002899	0.052795	-0.13001	0.12528	-0.13596	-0.068207	-0.009613	0.29205	-0.002899	0.3421	-0.032654	0.000916	-0.003204
25.031	0.042419	-0.02121	-0.11124	0.010376	0.068665	-0.32272	-0.039063	0.001984	0.23682	-0.002899	0.00351	0.016022	-0.27969	0.055389	0.072327	0.009613	0.065002	-0.039978	0.35461	0.04303	0.054474	-0.12177	0.15243	-0.12253	-0.053101	-0.009003	0.35797	-0.004883	-0.27756	-0.000458	-0.002441	-0.011292
25.032	0.039978	-0.039825	-0.013733	0.01709	0.0383	-0.16907	-0.16007	0.005951	0.3598	-0.028687	0.011749	0.008698	0.2272	0.072784	0.050507	-0.017395	0.077972	-0.037689	0.15671	0.096436	0.053101	-0.10391	0.13962	-0.13351	-0.072021	-0.014038	0.70465	-0.007782	-0.27344	0.024872	0.000458	-0.010529
25.033	0.015106	-0.045776	0.029755	0.015411	0.040588	0.003357	-0.083771	0.008087	0.38589	-0.030823	0.017548	0.013123	0.35461	0.088654	0.040894	-0.015106	0.047302	-0.006866	0.14343	0.024414	0.056458	-0.081482	0.15289	-0.092773	-0.04715	-0.010529	0.6955	-0.004425	-0.14847	0.005035	0.000763	-0.011139
25.034	0.01358	-0.02182	-0.005035	0.017853	0.052795	0.088806	-0.031586	0.004578	0.40237	0.004578	0.004425	0.009766	-0.070648	0.069733	0.00885	-0.005035	0.051117	0.031738	0.010071	0.00061	0.055695	-0.067749	0.12634	-0.040436	-0.051117	-0.006561	0.51712	-0.007629	-0.036469	-0.015564	0.000305	-0.013733
25.035	0.004272	0.015564	0.014191	-0.007324	-0.028839	0.103	0.013123	-0.004578	0.20157	0.030823	-0.018158	0.010071	0.18127	0.045013	-0.040283	-0.019836	0.054474	0.048981	0.032501	0.0737	0.070953	-0.055695	0.099182	-0.015564	-0.047607	-0.003967	0.13412	-0.005188	-0.047607	0.035248	-0.003204	-0.010376
25.036	-0.00061	-0.000458	-0.034332	-0.010071	-0.08728	0.12741	0.086823	-0.005951	-0.06424	0.021362	-0.016174	0.019989	0.059509	0.027313	0.013275	-0.010681	0.045166	0.039063	-0.13489	0.10254	0.058594	-0.031433	0.1474	-0.016479	-0.049286	-0.009613	-0.25772	-0.004272	0.079346	0.004883	0.002289	-0.012207
25.037	0.025787	0.006104	-0.096283	-0.027313	-0.1207	0.15579	0.1091	0.007935	-0.34393	-0.018921	-0.042725	0.010529	0.23529	0.016174	0.027466	-0.008545	0.053558	0.016022	-0.054321	0.089264	0.055237	-0.045013	0.13031	-0.015106	-0.05127	-0.015869	-0.46921	-0.009003	-0.088959	-0.027008	-0.001984	-0.016327
25.038	0.010986	0.045929	-0.0354	0.000305	0.009308	0.17014	0.15121	0.004578	-0.49576	-0.016174	-0.005951	0.006104	-0.12085	0.10757	0.041962	-0.003815	0.028534	0.023193	0.015411	0.11322	0.071716	-0.014343	0.1712	-0.024872	-0.029449	-0.008392	-0.31357	-0.013123	-0.072327	-0.048218	-0.00061	-0.00946
25.039	0.017242	0.096893	0.052032	-0.005493	0.11932	0.10742	0.18417	-0.001984	-0.39185	0.004883	0.036926	0.01297	-0.30716	0.093079	0.033417	0	0.030518	0.04303	-0.11841	0.10223	0.068207	-0.016174	0.12863	0.022125	-0.018921	-0.001526	-0.19089	-0.005646	0.007324	-0.059204	-0.005341	-0.011139
25.04	0.023346	0.10483	0.054932	0.016632	0.083771	0.036011	0.13107	-0.015717	-0.20508	-0.005798	0.046692	0.001678	-0.36346	0.10941	0.025177	-0.029755	-0.005493	0.03006	-0.040131	0.060883	0.068512	-0.008698	0.11246	0.026855	-0.026093	-0.008698	-0.089722	-0.004425	-0.068207	-0.043182	0.00061	-0.01358
25.041	0.036469	0.13931	0.14725	-0.00061	0.052795	-0.16022	0.09079	-0.007477	-0.14954	-0.034943	-0.015106	0.017395	-0.018616	0.061035	-0.032196	-0.006714	-0.023041	0.042572	0.10941	0.021667	0.06546	0.018005	0.10605	0.003815	-0.015259	-0.009766	0.028076	-0.007324	-0.10056	-0.008545	0.005493	-0.013123
25.042	0.036926	0.073242	0.12665	0.00061	0.006561	-0.03891	0.061493	-0.007324	-0.11704	-0.029907	-0.010071	0.017242	0.21194	-0.079041	-0.056763	0.001678	-0.027771	0.015411	-0.090027	0.071869	0.070953	0.031281	0.094757	0.043488	-0.018616	-0.01709	0.11749	-0.00473	-0.10849	-0.02182	-0.001831	-0.010681
25.043	0.018005	0.016785	0.10757	0.002899	-0.011902	-0.03952	0.075684	-0.004578	-0.092163	-0.007629	-0.012207	0.048523	-0.033722	-0.018921	-0.042114	-0.016479	-0.029144	0.005188	-0.069427	0.12482	0.066833	0.059357	0.072021	0.05188	-0.002441	-0.00946	0.18036	-0.005341	-0.080414	-0.000153	-0.011444	-0.008392
25.044	0.017395	0.010834	0.064697	0.01709	-0.008545	-0.016022	0.069885	0	0.040894	-0.003052	-0.017853	0.019379	-0.20325	0.098114	0.01358	0.012054	-0.020447	0.035248	0.062866	0.11734	0.093384	0.06134	0.000916	0.050354	0.001221	-0.012665	0.009918	-0.000763	0.023041	0.014801	-0.00412	-0.010071
25.045	0.009003	0.0354	0.075989	0.020142	-0.00061	0.003815	0.074921	0.011902	0.17303	0.012054	-0.046539	-0.013885	-0.024872	0.12619	0.019989	-0.00885	-0.006256	0.011749	-0.27634	0.17624	0.073853	0.048523	-0.031433	0.016785	0.000305	-0.005341	-0.18158	-0.000916	0.18341	-0.058136	-0.00946	-0.012054
25.046	0.008087	0.037994	0.09964	0.008087	-0.003815	-0.095673	0.095825	0.008087	0.2124	-0.013733	-0.016785	0.002441	0.027618	-0.051422	0.059967	0.001984	0.003357	0.022125	-0.27298	-0.015106	0.085602	0.06012	-0.025787	0.030823	-0.004272	-0.002136	-0.40405	-0.00473	0.2327	-0.072021	-0.001831	-0.009308
25.047	0.005341	0.002136	0.027924	-0.018616	0.005951	0.008698	0.14008	0.019684	0.1535	0.042725	0.036316	0.006561	0.060577	-0.13519	0.054626	-0.00946	0.016632	0.036469	-0.18173	-0.12054	0.08255	0.040741	0.027924	0.036774	0.012512	-0.002289	-0.33752	-0.001984	0.25299	-0.095062	-0.009003	-0.00946
25.048	0.002441	-0.065765	-0.058136	-0.035553	0.03067	0.024261	0.051575	0.029755	0.085754	0.042725	0.019989	0.011139	0.1416	-0.045013	-0.023193	-0.00885	0.021362	0.03891	0.12756	-0.25742	0.077515	0.055084	0.014801	0.005493	0.02243	-0.003052	-0.035553	-0.003967	-0.11307	-0.098724	-0.008545	-0.00412
25.049	0.002899	-0.11078	-0.19424	-0.033264	0.017395	0.10544	0.029602	0.032959	0.11093	-0.016022	0.005188	0.009613	0.14374	0.019073	0.016022	-0.001831	0.090027	0.04364	0.23239	-0.13092	0.065155	0.020142	0.002747	-0.009613	0.014343	-0.005951	0.20325	-0.005035	-0.22919	-0.053711	-0.00885	-0.006409
25.05	0.013275	-0.17288	-0.26901	-0.006104	0.010376	0.24078	0.085602	0.028076	-0.047913	-0.00885	0.015564	0.002441	0.49698	0.082855	0.026245	0.003357	0.075836	0.055695	0.075378	0.034637	0.046234	0.018005	-0.011597	0.045319	0.024109	-0.010834	0.63721	-0.005188	-0.079346	0.004883	-0.007019	-0.006409
25.051	-0.020447	-0.13779	-0.22888	0.016327	0.001831	0.1445	0.021667	0.011139	-0.25894	0.093384	0.001831	0.007477	0.79224	0.094604	-0.007172	-0.001221	0.038147	0.019836	0.098114	-0.024719	0.046539	0.021667	0.019379	0.009308	0.006104	-0.009766	0.88379	-0.003815	0.067444	-0.009918	-0.013428	-0.012665
25.052	0.006714	-0.026855	-0.13779	0.009308	0.005646	0.26993	-0.093231	-0.010834	-0.07782	0.21759	0.031433	0.010071	0.48172	0.1503	0.00946	0.019073	-0.015259	0.059509	0.17944	-0.065155	0.059814	0.028992	-0.015106	0.027618	0.000305	-0.003052	0.59143	-0.003815	0.092316	-0.037537	-0.013885	-0.013428
25.053	-0.020905	0.042419	-0.002899	0.007324	-0.004578	0.34744	-0.11566	-0.020447	0.1149	0.31418	0.050964	0.012817	-0.031433	0.19241	0.025635	-0.022888	-0.030212	0.065613	0.080109	-0.016479	0.048981	0.01236	0.032654	0.010986	0.000153	-0.010223	0.20325	-0.003815	0.014648	-0.061951	-0.008698	-0.013275
25.054	-0.005341	0.077667	-0.030212	-0.005951	-0.000763	0.31967	-0.050354	-0.043335	0.10773	0.3122	-0.020294	0.014801	-0.75073	0.27283	0.10605	0.021515	-0.061035	0.043793	0.053101	-0.001984	0.035706	-0.00412	0.056763	-0.027618	-0.025177	-0.00412	-0.43732	0.006561	-0.30106	-0.084686	-0.011749	-0.007629
25.055	-0.008392	0.11414	0.058594	0.000763	-0.003052	0.088501	0.021362	-0.024109	-0.089874	0.075378	-0.021057	0.013733	-0.8963	0.18005	0.087128	0.019684	-0.059814	0.12573	0.20981	0.04776	0.031891	-0.016937	0.086517	0.018158	-0.015564	-0.009613	-0.24521	-0.002289	-0.47653	-0.10346	-0.013428	-0.008392
25.056	-0.010529	0.15472	0.038757	0.003204	0.002136	0.051727	0.036774	-0.007324	-0.46204	-0.26794	-0.045624	0.003967	-0.62851	-0.050659	-0.20645	-0.027618	-0.092163	0.12482	0.2742	0.096893	0.03418	-0.011902	0.043335	0.011139	-0.01236	-0.006104	0.26718	-0.004272	-0.30609	-0.1387	-0.011749	-0.002441
25.057	-0.013123	0.11765	0.16876	0.006561	0.000763	0.22354	0.037689	0.005798	-0.41992	-0.22217	-0.024261	0.005188	-0.32349	-0.21698	-0.28229	-0.014954	-0.071716	0.11108	0.30807	0.006409	0.037994	0.00412	0.037689	0.053711	-0.007782	-0.002899	0.25772	-0.002441	0.47775	-0.099487	-0.011444	-0.004272
25.058	-0.011749	0.083923	0.22095	0.010986	-0.002594	-0.096283	-0.01236	0.008087	-0.1413	-0.20935	-0.020905	0.008392	0.016174	-0.30441	-0.12009	-0.048065	-0.043488	0.099792	0.25345	-0.046692	0.037079	-0.011139	0.038452	0.031891	-0.011444	-0.005798	0.2684	-0.003967	0.49042	-0.090637	-0.013733	-0.002747
25.059	-0.003357	0.13229	0.071869	0.02655	0.00885	-0.25009	0.010071	-0.003662	0.013275	-0.13962	-0.03067	0.013123	-0.097198	-0.16449	-0.001831	-0.027161	-0.036774	0.11856	0.095673	-0.032196	0.029144	-0.006866	0.010529	-0.015106	-0.00946	-0.002899	-0.52155	-0.002747	0.22736	-0.023499	-0.013275	0.000916
25.06	0.006866	0.076141	-0.12878	0.019226	0.01236	-0.35385	-0.008545	-0.001831	0.029755	-0.081177	-0.004578	0.010986	0.13992	0.007782	0.06897	-0.03067	-0.006104	0.07843	0.026245	-0.057526	0.019531	-0.034637	0.041962	-0.014343	-0.033722	-0.010071	-0.43915	-0.005188	0.28976	0.021973	-0.01358	-0.00885
25.061	-0.006561	-0.00351	-0.078125	-0.004578	0.007019	-0.42358	0.010529	0	0.050354	-0.021973	0.011292	0.005035	0.15823	0.11826	0.10956	-0.049286	0.014038	0.13855	0.032196	-0.071411	0.007172	-0.035706	0.10086	-0.051575	-0.027008	-0.012817	-0.11581	-0.008545	0.26916	0.048523	-0.016327	-0.011902
25.062	-0.00473	0.007629	0.002441	-0.014954	0.008087	-0.36011	-0.002594	-0.001373	0.058289	0.025787	0.020905	0.004272	-0.018921	0.043182	0.0354	-0.044708	0.031586	0.17258	-0.033264	0.042114	0.02121	-0.051117	0.048523	-0.028229	-0.00946	-0.002747	0.11215	-0.002747	0.17624	-0.011292	-0.018463	-0.001831
25.063	-0.003967	-0.11078	-0.014648	-0.019531	0.012817	-0.28961	-0.02121	0.001068	0.06546	0.058136	0.001831	0.003815	0.062103	-0.074463	-0.066223	-0.054779	0.030975	0.13138	0.094757	0.032959	0.022278	-0.030975	0.099182	-0.055237	-0.032806	0.007172	-0.30106	-0.001984	0.12405	-0.074768	-0.013123	-0.001526
25.064	0.004578	-0.18097	0.022125	-0.027924	0.022125	-0.34073	0.008392	0.009613	0.048676	0.042114	-0.001221	0.003815	-0.18097	-0.006561	-0.032654	-0.034027	0.02655	0.18097	0.052185	0.029755	0.013733	-0.024109	0.054016	-0.019226	-0.03006	0.003204	-0.46661	-0.000153	-0.030518	-0.032043	-0.016174	-0.002136
25.065	0.006866	-0.26093	-0.092621	-0.004425	0.021057	-0.2385	0.016022	0.009766	0.050659	-0.029907	0.018005	-0.002441	-0.16541	0.069427	-0.000763	-0.042725	0.018463	0.098724	-0.046234	0.059357	0.013275	-0.028381	0.061035	-0.019379	-0.01709	-0.002289	-0.045929	-0.001526	0.23209	-0.014648	-0.013733	-0.006104
